<svg xmlns="http://www.w3.org/2000/svg" id="Calque_1" data-name="Calque 1" viewBox="0 0 180 36">
    <defs>
        <style>
            .cls-1{fill:#6e6b6b;}.cls-2{fill:#f9ae4c;}.cls-3{fill:#83b3b1;}.cls-4{fill:#ed5c59;}.cls-5{fill:#e19c49;}.cls-6{fill:#709b9e;}.cls-7{fill:#c8474f;}
        </style>
    </defs>
    <path d="M53,18.9H43.58v9.73h-4.9V4.83h15.5v4H43.58v6.15H53Z" class="cls-1"/>
    <path d="M55.62,19.62a10.49,10.49,0,0,1,1-4.69,7.42,7.42,0,0,1,2.92-3.19A8.51,8.51,0,0,1,64,10.61a8.06,8.06,0,0,1,5.84,2.19,8.8,8.8,0,0,1,2.53,5.95l0,1.21a9.24,9.24,0,0,1-2.27,6.53A7.9,7.9,0,0,1,64,29a7.93,7.93,0,0,1-6.1-2.45,9.4,9.4,0,0,1-2.28-6.67Zm4.72.34a6.6,6.6,0,0,0,.95,3.85,3.41,3.41,0,0,0,5.39,0,7.24,7.24,0,0,0,1-4.22,6.55,6.55,0,0,0-1-3.83A3.14,3.14,0,0,0,64,14.42a3.08,3.08,0,0,0-2.68,1.35A7.35,7.35,0,0,0,60.35,20Z" class="cls-1"/>
    <path d="M74.55,19.62a10.49,10.49,0,0,1,1-4.69,7.42,7.42,0,0,1,2.92-3.19,8.51,8.51,0,0,1,4.42-1.13,8.06,8.06,0,0,1,5.84,2.19,8.8,8.8,0,0,1,2.53,5.95l0,1.21A9.24,9.24,0,0,1,89,26.49a8.81,8.81,0,0,1-12.2,0,9.4,9.4,0,0,1-2.28-6.67Zm4.72.34a6.6,6.6,0,0,0,.95,3.85,3.41,3.41,0,0,0,5.39,0,7.24,7.24,0,0,0,1-4.22,6.55,6.55,0,0,0-1-3.83,3.14,3.14,0,0,0-2.71-1.36,3.08,3.08,0,0,0-2.68,1.35A7.35,7.35,0,0,0,79.28,20Z" class="cls-1"/>
    <path d="M93.48,19.65a10.66,10.66,0,0,1,1.85-6.59,6,6,0,0,1,5.08-2.45,5.42,5.42,0,0,1,4.27,1.93v-9h4.74V28.63h-4.27l-.23-1.88A5.56,5.56,0,0,1,100.38,29a6,6,0,0,1-5-2.46A11,11,0,0,1,93.48,19.65ZM98.2,20a7,7,0,0,0,.87,3.81,2.82,2.82,0,0,0,2.52,1.33,3.16,3.16,0,0,0,3.09-1.85v-7a3.12,3.12,0,0,0-3.06-1.85Q98.2,14.45,98.2,20Z" class="cls-1"/>
    <path d="M121.22,29a8.68,8.68,0,0,1-6.33-2.39,8.48,8.48,0,0,1-2.44-6.36v-.46a10.68,10.68,0,0,1,1-4.76,7.56,7.56,0,0,1,2.92-3.24,8.19,8.19,0,0,1,4.31-1.14,7.34,7.34,0,0,1,5.71,2.29,9.3,9.3,0,0,1,2.08,6.49v1.93H117.23a4.39,4.39,0,0,0,1.38,2.78,4.18,4.18,0,0,0,2.92,1,5.1,5.1,0,0,0,4.27-2l2.32,2.6a7.09,7.09,0,0,1-2.88,2.35A9.44,9.44,0,0,1,121.22,29Zm-.54-14.53a3,3,0,0,0-2.28,1,4.94,4.94,0,0,0-1.12,2.73h6.57v-.38a3.52,3.52,0,0,0-.85-2.44A3,3,0,0,0,120.68,14.42Z" class="cls-1"/>
    <path d="M139.31,29A8.68,8.68,0,0,1,133,26.57a8.48,8.48,0,0,1-2.44-6.36v-.46a10.68,10.68,0,0,1,1-4.76,7.56,7.56,0,0,1,2.92-3.24,8.19,8.19,0,0,1,4.31-1.14,7.34,7.34,0,0,1,5.71,2.29,9.3,9.3,0,0,1,2.08,6.49v1.93H135.32a4.39,4.39,0,0,0,1.38,2.78,4.18,4.18,0,0,0,2.92,1,5.1,5.1,0,0,0,4.27-2l2.32,2.6a7.09,7.09,0,0,1-2.88,2.35A9.44,9.44,0,0,1,139.31,29Zm-.54-14.53a3,3,0,0,0-2.28,1,4.94,4.94,0,0,0-1.12,2.73h6.57v-.38a3.52,3.52,0,0,0-.85-2.44A3,3,0,0,0,138.77,14.42Z" class="cls-1"/>
    <path d="M159.2,15.37a12.87,12.87,0,0,0-1.7-.13q-2.68,0-3.51,1.81V28.63h-4.72V10.94h4.46l.13,2.11a4.38,4.38,0,0,1,3.94-2.44,5,5,0,0,1,1.47.21Z" class="cls-1"/>
    <path d="M160.15,19.62a10.49,10.49,0,0,1,1-4.69,7.42,7.42,0,0,1,2.92-3.19,8.51,8.51,0,0,1,4.42-1.13,8.06,8.06,0,0,1,5.84,2.19,8.8,8.8,0,0,1,2.53,5.95l0,1.21a9.24,9.24,0,0,1-2.27,6.53,8.81,8.81,0,0,1-12.2,0,9.4,9.4,0,0,1-2.28-6.67Zm4.72.34a6.6,6.6,0,0,0,.95,3.85,3.41,3.41,0,0,0,5.39,0,7.24,7.24,0,0,0,1-4.22,6.55,6.55,0,0,0-1-3.83,3.14,3.14,0,0,0-2.71-1.36,3.08,3.08,0,0,0-2.68,1.35A7.35,7.35,0,0,0,164.87,20Z" class="cls-1"/>
    <path d="M18.08,9.28l4,6.92,4-6.87A13.73,13.73,0,0,0,14.14,2.4Z" class="cls-2"/>
    <path d="M18.08,23.13h-8l4,6.88A13.73,13.73,0,0,0,26,23.13Z" class="cls-3"/>
    <path d="M6.14,16.2l4-6.92H2.22a13.85,13.85,0,0,0,0,13.8Z" class="cls-4"/>
    <path d="M19.28,11.36l-5.14-9h0A13.73,13.73,0,0,0,2.21,9.28H15.9A4.4,4.4,0,0,1,19.28,11.36Z" class="cls-5"/>
    <path d="M26,9.32l-6.84,11.9a4.58,4.58,0,0,1-3.47,1.91H26v0A13.85,13.85,0,0,0,26,9.32Z" class="cls-6"/>
    <path d="M7.24,18.1a4.43,4.43,0,0,1,.1-4c-.72,1.23-5.14,8.94-5.14,8.94v0A13.72,13.72,0,0,0,14.06,30Z" class="cls-7"/>
</svg>
